<svg width="1440" height="243" viewBox="0 0 1440 243" fill="none" xmlns="http://www.w3.org/2000/svg">
<path opacity="0.6" fill-rule="evenodd" clip-rule="evenodd" d="M0 1.94354L39.6 24.1149C80.4 46.2863 159.6 90.629 240 75.8481C320.4 61.0672 399.6 -12.8374 480 1.94354C560.4 16.7245 639.6 120.191 720 127.581C800.4 134.972 879.6 46.2863 960 31.5054C1040.4 16.7245 1119.6 75.8481 1200 105.41C1280.4 134.972 1359.6 134.972 1400.4 134.972H1440V268H1400.4C1359.6 268 1280.4 268 1200 268C1119.6 268 1040.4 268 960 268C879.6 268 800.4 268 720 268C639.6 268 560.4 268 480 268C399.6 268 320.4 268 240 268C159.6 268 80.4 268 39.6 268H0L0 1.94354Z" fill="#C18823" fill-opacity="0.15"/>
</svg>
